/* XPM */
static char *aeabce2ad62b4620ab287aee3214a2f9Wm1l4yBBqdxoJOqI[] = {
/* columns rows colors chars-per-pixel */
"45 45 41 1 ",
"  c None",
". c black",
"X c #000100",
"o c #000200",
"O c #000500",
"+ c #000700",
"@ c #000A00",
"# c #000B00",
"$ c #000C00",
"% c #001000",
"& c #002000",
"* c #002100",
"= c #002A01",
"- c #002B01",
"; c #002C01",
": c #002E01",
"> c #003001",
", c #004D02",
"< c #006704",
"1 c #00A00B",
"2 c #00B60E",
"3 c #00BA10",
"4 c #00C411",
"5 c #00C511",
"6 c #00CC12",
"7 c #00CD13",
"8 c #00D613",
"9 c #00D614",
"0 c #00D714",
"q c #00DA14",
"w c #00DB15",
"e c #00EC16",
"r c #00EC17",
"t c #00EE17",
"y c #00F719",
"u c #00FC1B",
"i c #00FF1A",
"p c #00FF1B",
"a c #00FF1C",
"s c #00FF1D",
"d c #00FF1E",
/* pixels */
"                                             ",
"                                             ",
"                                             ",
"                                             ",
"                                             ",
"                                             ",
"                                             ",
"                                             ",
"                    .....                    ",
"                    *252*                    ",
"                    >ysy>                    ",
"                    =tit=                    ",
"                    ;tit;                    ",
"                    ;tst;                    ",
"                    ;tit=                    ",
"                    ;ysy;                    ",
"                    *373*                    ",
"                    .....                    ",
"                                             ",
"                                             ",
"      ###.OOO.%O#           #O%.OOO.#$O      ",
"      ,7w88w98w1.           .1w89999w7,      ",
"      <ysssssss5.           .5sssssssy<      ",
"      ,7w99999w1.           .1w88w98w7,      ",
"      O$#.OOO.%O#           #O%.OOO.#$#      ",
"                                             ",
"                                             ",
"                    .....                    ",
"                    *373*                    ",
"                    ;ysy;                    ",
"                    ;tit;                    ",
"                    =tit;                    ",
"                    ;tit=                    ",
"                    =tit=                    ",
"                    >ysy>                    ",
"                    *252*                    ",
"                    .....                    ",
"                                             ",
"                                             ",
"                                             ",
"                                             ",
"                                             ",
"                                             ",
"                                             ",
"                                             "
};
