/* XPM */
static char *_6525fcb154840f08dcccbc7465aa5fdklCXeLSF4IrIp98o[] = {
/* columns rows colors chars-per-pixel */
"64 64 149 2 ",
"   c None",
".  c black",
"X  c #000312",
"o  c #02141D",
"O  c #240000",
"+  c #290000",
"@  c #3C0B0A",
"#  c #2D1C1A",
"$  c #3E1D16",
"%  c #2E241D",
"&  c #34251E",
"*  c #001D25",
"=  c #002226",
"-  c #002329",
";  c #00292D",
":  c #142D2F",
">  c #1F2D2E",
",  c #012D31",
"<  c #0D2F32",
"1  c #142E32",
"2  c #1D2F31",
"3  c #023032",
"4  c #113032",
"5  c #1D3233",
"6  c #2E2523",
"7  c #2F2B24",
"8  c #252C2D",
"9  c #2C2C2C",
"0  c #332623",
"q  c #3A2723",
"w  c #342A26",
"e  c #3B2A26",
"r  c #332D2B",
"t  c #3A2D2B",
"y  c #2F312F",
"u  c #35302E",
"i  c #3A312E",
"p  c #242F32",
"a  c #2A2F31",
"s  c #243232",
"d  c #2C3232",
"f  c #313131",
"g  c #393433",
"h  c #333837",
"j  c #3B3836",
"k  c #34393A",
"l  c #393C3B",
"z  c #5F1E0A",
"x  c #481E19",
"c  c #5E1E11",
"v  c #630000",
"b  c #730000",
"n  c #790100",
"m  c #6C1B01",
"M  c #651F09",
"N  c #462118",
"B  c #4C231D",
"V  c #52241C",
"C  c #5E2418",
"Z  c #5F281C",
"A  c #5C2214",
"S  c #63220F",
"D  c #6D230A",
"F  c #702007",
"G  c #7A2303",
"H  c #73240A",
"J  c #7B260B",
"K  c #6B2611",
"L  c #6C2D1E",
"P  c #7B2B11",
"I  c #782F1C",
"U  c #452421",
"Y  c #4E2720",
"T  c #412926",
"R  c #4A2A25",
"E  c #432D28",
"W  c #4B2D2A",
"Q  c #502920",
"!  c #44312D",
"~  c #4D352E",
"^  c #54322A",
"/  c #463733",
"(  c #453A34",
")  c #4B3934",
"_  c #513630",
"`  c #523831",
"'  c #583B32",
"]  c #632C20",
"[  c #61372A",
"{  c #603B2E",
"}  c #69382B",
"|  c #753223",
" . c #7B3E2A",
".. c #603C30",
"X. c #514439",
"o. c #7A412C",
"O. c #802400",
"+. c #832906",
"@. c #81290A",
"#. c #852A0A",
"$. c #892B0A",
"%. c #83361B",
"&. c #863E29",
"*. c #854026",
"=. c #8B4126",
"-. c #87442F",
";. c #8A452D",
":. c #924326",
">. c #95492B",
",. c #884530",
"<. c #A74A22",
"1. c #AD4D25",
"2. c #A34C2B",
"3. c #AC4D28",
"4. c #B24E24",
"5. c #B84E21",
"6. c #B14F28",
"7. c #BA5125",
"8. c #CC551E",
"9. c #D2561F",
"0. c #C55322",
"q. c #CB5420",
"w. c #D15620",
"e. c #915142",
"r. c #A05846",
"t. c #AD5F4C",
"y. c #AD604A",
"u. c #B1614D",
"i. c #BB6652",
"p. c #A4725C",
"a. c #9B7763",
"s. c #AF7A61",
"d. c #C36A52",
"f. c #D6745A",
"g. c #DC755B",
"h. c #DE785D",
"j. c #E67A5F",
"k. c #ED7E61",
"l. c #998070",
"z. c #AF806D",
"x. c #F48163",
"c. c #FC8667",
"v. c #C29782",
"b. c #C09882",
"n. c #C5A995",
"m. c #CCA995",
"M. c #E3CAB7",
"N. c #E5CBB8",
"B. c #FFFBEB",
/* pixels */
"                                                                                                                                ",
"                                                                                                                                ",
"                                                                                                                                ",
"                                                                                                                                ",
"                                                                                                                                ",
"                                                                                                                                ",
"                                                                                                                                ",
"                                                                                                                                ",
"                                                                                                                                ",
"                                                                                                                                ",
"                                                                                                                                ",
"                                                                                                                                ",
"H M                                                                                                                             ",
"J $.@.H &                                                                                                                       ",
"  @.@.G e u %                                                                                                                   ",
"  H $.F 8 f g r w                                                                                                               ",
"    $.H 8 f f f f r w                                                                                                         M ",
"    H H 8 f f f f f g u                                                                                               0 r 9 K $.",
"      G w d f f f f f f h t                                                                                       r u g f y H @.",
"      m R d f f f f f f f f u                                                                               w r h f f f f r H @.",
"        Y f f f f f f d f f f g t                                                                       u g g f d f f f d i G J ",
"        $ g a f f f f r f f f a h t                                                                 r f h f f f f f f f d W +.S ",
"          e f f f f f d f f f f f f g q                                                       w r h f f f f f f f f f u s L H   ",
"            f f f f f f f f f f f f f g w                                                 w f f f f f f f f f f f f d f d K     ",
"            6 f f f f f f f f f f f f a h e                                           w g g f f f f d r f f f f r f r d W z     ",
"              r f f f f f d f f f f f f f g q           q q w w w r r r w r w w   e g g f f f f f f f f f f f f f f f g N       ",
"              0 g f f f f f f f f f f f f d r t u f f g h g f h h f f h f h h f g h a f f f f f f f f f f f a f f f f E         ",
"                9 h f d f f f f r f f f f f f f f f f f f f f f f f f f f f f f f f f f f a f f f f f f f f f f f d g &         ",
"                  6 f f f f f f f f f f f f f f f f f f f d f f f f f f f f f f f f f f f f f r d f f f f f f f f h w           ",
"                    u f f f f f f f f f f f f f f f f f f f f f f f f f f g f f f f f f f d f f f f f f f f f f f r             ",
"                      f f f d f d f f f f f f f f f f f f f r d f f f f f f f f a f f f f f f f f f f f f f f f r               ",
"                        f f i t f f f f a f f f f f f f f f f f a f f f f f a f f f f f f f f f f f a f f f h u                 ",
"                          t t f f f f f f f f f f f f f f f d f f f f f f f f f f f f f f a f f d r f f f g r                   ",
"                          6 f f f f f f f f f f r f f a f f f f f f f f f y f y f f f f f f r f f f e g u w                     ",
"                          9 f f f f f f f f f f f f f f f f f f f f f f f f f y f f f f f f f f f f f e                         ",
"                        # f f f f f d g l f f f f f f f f f f f f f f f f f a g l k f f f f f f f f f r                         ",
"                        6 f f f f r f X . 6 a f f f f f f r d f f f f f f a g 8 . + f d f f d f f f f g w                       ",
"                        f f f f f h o l.m.&.x d f f f d f f f f f f f f y g a ) n.s.v h f f f f f f f f r                       ",
"                      0 h y f f d k O N.B.s.v g f f f f f f f f f f f f a g X a.B.N.b ^ d f f f f f f d g 0                     ",
"                      9 f f f f f h @ p.v.%.G t d f f f f f f f f f f f f g p | v.p.n L s f f f f f f f h w                     ",
"                      u f f f f f f i b b G H y f f f f f f f f f f f f f f a c b n #.Y d f f f f f f f f r                     ",
"                    w h f f f f f f y ^ I D e d f f f f f f f f a f f f f f f r ] P c p f f f f f f f f f f                     ",
"                    r f f f f f f f u d 9 9 d f f f f f a 5 d f f f f f y f f a a 6 a f f f f f f f f f f h w                   ",
"                    f f u u g u f f d f f f f f f f f f Y C U d f f f f f f f g f f f f f g f f g f f f f f t                   ",
"                    g d 3 4 3 3 u f f f f f f f f f f 9 x K V d f f f f f f f y f f f g a , : 9 , 1 f f f f i                   ",
"                  0 d ( >.4.3.;.f a f f f f f f f f f f d 5 d u f f f f f f f f f f u a 9 =.4.5.<.} 1 u f f g w                 ",
"                  9 ( 7.w.q.9.9.2.5 f f f f f f f a f f f f f f f f f f f f y y f u f p <.w.w.q.9.8.o.< f f h r                 ",
"                  ; ,.9.q.q.q.q.q...2 f f f f f f f f f / f s p a g f f f f f f f f ,  .w.q.q.q.q.w.7.f f f f r                 ",
"                  ; ,.w.q.q.q.q.q...5 f f f f f f f f 9 = 8 E _ ! - f f f f f f f g ; =.9.q.q.q.8.q.0._ p g f g                 ",
"                  9 ( 7.w.w.w.w.2.s f f f f f a f f d i y.j.j.k.j.i.9 f f f f f f f 2 [ 8.w.q.q.q.9.6.s u f a g 0               ",
"                  r d ) >.6.3.;.f a f f f f f f f g = i.c.x.x.x.x.c.e.- g f f f f u g < &.8.9.9.w.7.' s f f f g w               ",
"                  r h a 3 s 5 , f f f f u f f f f g - f.x.k.x.k.x.x.i.* g f f f f f f f , ^ &.:. .g p f f f f f t               ",
"                  w g f g u f g f f f f r f f f f g - i.c.k.k.x.k.c.d.* g f f f f f f f f p , , , f f f f f f a u               ",
"                    g f f f f r f f f f f f f f f g 9 ~ f.c.x.k.x.c.r.= g f f f f f f f f r g g f f f f f f f f g               ",
"                    w f f f f f f f d f f f a f f f f 8 ! y.f.j.f.t.9 u f f r f f f f a f f f f f f f f f f f f f 7             ",
"                      g f f d f f f f f f f f f f f f f d = = 8 = * d f f f f f f f f f f f f f f f f f f f f f f u             ",
"                      r h f f f f f f f f f f f f f f f f g g f g g f f f u d f f f f f f f f f f f f f d f f f f u             ",
"                        g f f f f f f a f f f f f f f f f f d f f f f f f f f f f f d f f f f f f 9 f f f f f f d y             ",
"                        e f f f f f f f f f f f f f f f f f f f f d f f f d d f f f f f f f f a f f f f f f r f f f             ",
"                          f f f f d r f f f f f f f f f f f f r f u f f f u f f f r f f f f f f f f f f f f d f u g             ",
"                          u f f f f f f f f f f f a f f f f f f f f f f f f f f f f f f f f f d f f f f f f f f d g w           ",
"                          j a f f f f f f f f f f f f f f a f f f f f a f f f f f f a f f f f r f f f f f f f f f f r           ",
"                        r f f f f f f a f f f d f f f f f f f f f f f f f f f r f f f f f f f f f f d f d f f f f f r           ",
"                        u f f f f f f f f f f f r f f f f f f f f f f f f f f d f f f d f f f f f f f f u f f f f h u           "
};
