/* XPM */
static char *_4b33b4e55924773bd7987cfc56f1231i26clQq6h7x7vzhF[] = {
/* columns rows colors chars-per-pixel */
"32 32 99 2 ",
"   c None",
".  c #4A2713",
"X  c #583717",
"o  c #77240A",
"O  c #7A260A",
"+  c #7B260A",
"@  c #7C260A",
"#  c #7C270A",
"$  c #7D270A",
"%  c #682710",
"&  c #63441B",
"*  c #725E29",
"=  c #7A5B28",
"-  c #68612C",
";  c #6F622C",
":  c #6F6D2E",
">  c #7C642A",
",  c #7C692C",
"<  c #7E6F2E",
"1  c #873B13",
"2  c #8D3F21",
"3  c #8A4016",
"4  c #8A4D1C",
"5  c #904818",
"6  c #954E1A",
"7  c #94502A",
"8  c #9B5336",
"9  c #B55E2E",
"0  c #B75D31",
"q  c #BF5E39",
"w  c #8A6529",
"e  c #89662A",
"r  c #98702B",
"t  c #9D772D",
"y  c #B4622C",
"u  c #A4752B",
"i  c #A17C2F",
"p  c #BB732B",
"a  c #B97F2E",
"s  c #C8561F",
"d  c #C8591F",
"f  c #CA5520",
"g  c #CC5521",
"h  c #CA6422",
"j  c #CB6823",
"k  c #CC6823",
"l  c #A46548",
"z  c #B47D63",
"x  c #E6795A",
"c  c #A8812F",
"v  c #A8822F",
"b  c #AB822F",
"n  c #B4862F",
"m  c #BC8231",
"M  c #B58931",
"N  c #B98D31",
"B  c #BA8C32",
"V  c #BE9033",
"C  c #D6882D",
"Z  c #D6892D",
"A  c #D78B2E",
"S  c #C28A33",
"D  c #CA8B30",
"F  c #CD9131",
"G  c #CB9434",
"H  c #CE9836",
"J  c #DA9230",
"K  c #D19B35",
"L  c #D19C35",
"P  c #D19F36",
"I  c #D79D35",
"U  c #D5A136",
"Y  c #D8A437",
"T  c #D6A438",
"R  c #D9A638",
"E  c #DAA638",
"W  c #DAA839",
"Q  c #DEA938",
"!  c #DDAB3A",
"~  c #E0A035",
"^  c #E1A236",
"/  c #E1A336",
"(  c #E2A537",
")  c #E1A838",
"_  c #E0AE3B",
"`  c #E2B03B",
"'  c #E4B13B",
"]  c #E3B23C",
"[  c #E4B33C",
"{  c #E6B53D",
"}  c #E7B63D",
"|  c #E7B73D",
" . c #E8B73D",
".. c #E9B83E",
"X. c #EAB93E",
"o. c #EBBB3F",
"O. c #ECBB3F",
"+. c #ECBC3F",
"@. c #F08061",
/* pixels */
"                                                                ",
"                                                                ",
"                                                                ",
"                                                                ",
"                                                                ",
"                                                                ",
"        o X                                                     ",
"        . #  .:                                                 ",
"          + +.+.P                                             % ",
"          & +.+.+.+.=                                   e  .+.# ",
"            Y +.+.+.+.a                             r +.+.+.+.+ ",
"            * +.+.+.+.+.G                       e O.+.+.+.+.E   ",
"              | +.+.+.+.+.m                 7 X.+.+.+.+.+.+.4   ",
"                +.+.+.+.+.+.X.+.+.+.+.+.+.+.+.+.+.+.+.+.+.O.    ",
"                n +.+.+.+.+.+.+.+.+.+.+.+.+.+.+.+.+.+.+.+.,     ",
"                  W X.+.+.+.+.+.+.+.+.+.+.+.+.+.+.+.+.+.N       ",
"                    K +.+.+.+.+.+.+.+.+.+.+.+.+.+._ O.b         ",
"                    +.+.+.+.+.+.+.+.+.+.+.+.+.+.+.+.u           ",
"                  t +.+.H 3 +.+.+.+.+.+.+.S 5 +.+.+.+.          ",
"                  } +.+.l 8 T +.+.+.+.+.+.z 2 [ +.+.+.-         ",
"                  +.+.+.6 $ o.O.+.+.+.+.+.1 # O.+.+.O.B         ",
"                ; +.+.+.+.O.o.o.E ] +.+.+.+.+.+.+.+.+.|         ",
"                M ^ A +.+.+.+.+.U P X.+.+.+.+.O.Z / +.+.        ",
"                I g g k +.+.+.+.+.+.+.+.+.+.+.d g g ( +.        ",
"                ) g g j o.+.+.+.p h 0 +.+.+.X.f g g J +.b       ",
"                ] ^ C o.+.+.O.] x @.@.F +.+.+./ s h +.+.W       ",
"                v +.+.+.+.+.+.o.x @.@.D +.+.+.+.+.+.+.+.+.      ",
"                  +.+.+.+.+.+.+.! q y +.+.+.+.+.+.+.+.+.+.      ",
"                  T +.+.+.+.+.+.o.o.o.o.+.+.+.+.+.+.+.+.+.      ",
"                    +.+.+.+.+.+.o.o.+.+.+.+.+.+.+.+.+.+.+.<     ",
"                    +.+.+.+.+.+.+.+.+.+.+.+.+.+.+.+.+.+.+.i     ",
"                  , +.+.+.+.+.+.+.+.+.+.+.+.+.+.+.+.+.+.+.V     "
};
